<?xml version="1.0" standalone="no"?><!-- Generator: Gravit.io --><svg xmlns="http://www.w3.org/2000/svg" xmlns:xlink="http://www.w3.org/1999/xlink" style="isolation:isolate" viewBox="0 0 104 104" width="104" height="104"><defs><clipPath id="_clipPath_qgsX0Hi0x1NZJsrMfoYbN3axPO9TQD0w"><rect width="104" height="104"/></clipPath></defs><g clip-path="url(#_clipPath_qgsX0Hi0x1NZJsrMfoYbN3axPO9TQD0w)"><defs><filter id="TYRfeGxNBcwiY4fatyEguuqvQD3aHhWu" x="-200%" y="-200%" width="400%" height="400%" filterUnits="objectBoundingBox" color-interpolation-filters="sRGB"><feGaussianBlur xmlns="http://www.w3.org/2000/svg" in="SourceGraphic" stdDeviation="4.293609062839028"/><feOffset xmlns="http://www.w3.org/2000/svg" dx="0" dy="5" result="pf_100_offsetBlur"/><feFlood xmlns="http://www.w3.org/2000/svg" flood-color="#000000" flood-opacity="0.4"/><feComposite xmlns="http://www.w3.org/2000/svg" in2="pf_100_offsetBlur" operator="in" result="pf_100_dropShadow"/><feBlend xmlns="http://www.w3.org/2000/svg" in="SourceGraphic" in2="pf_100_dropShadow" mode="normal"/></filter></defs><g filter="url(#TYRfeGxNBcwiY4fatyEguuqvQD3aHhWu)"><circle vector-effect="non-scaling-stroke" cx="52" cy="52" r="39.999999999999986" fill="rgb(141,59,255)"/></g><g><rect x="20" y="20" width="64" height="64" transform="matrix(1,0,0,1,0,0)" fill="none"/><path d=" M 27 52 C 27.02 51.31 27.28 50.64 27.74 50.13 C 28.21 49.59 28.77 49.14 29.4 48.79 C 30.15 48.36 30.94 48 31.76 47.71 C 32.76 47.34 33.77 47.04 34.8 46.79 C 37.35 46.17 39.95 45.73 42.56 45.48 C 45.7 45.15 48.85 44.99 52 45 C 55.15 44.99 58.3 45.15 61.44 45.48 C 64.05 45.73 66.65 46.17 69.2 46.79 C 70.23 47.04 71.24 47.34 72.24 47.71 C 73.06 48 73.85 48.36 74.6 48.79 C 75.23 49.14 75.79 49.59 76.26 50.13 C 76.72 50.65 76.98 51.31 77 52 C 76.98 52.69 76.72 53.35 76.26 53.87 C 75.79 54.41 75.23 54.86 74.6 55.21 C 73.85 55.64 73.06 56 72.24 56.29 C 71.24 56.66 70.23 56.96 69.2 57.21 C 66.65 57.83 64.05 58.27 61.44 58.52 C 58.3 58.85 55.15 59.01 52 59 C 48.85 59.01 45.7 58.85 42.56 58.52 C 39.95 58.27 37.35 57.83 34.8 57.21 C 33.77 56.96 32.76 56.66 31.76 56.29 C 30.94 56 30.15 55.64 29.4 55.21 C 28.77 54.86 28.21 54.41 27.74 53.87 C 27.28 53.35 27.02 52.69 27 52 Z  M 29 52 C 29.02 51.8 29.1 51.61 29.24 51.46 C 29.56 51.08 29.95 50.77 30.38 50.54 C 31.03 50.16 31.72 49.84 32.44 49.59 C 33.37 49.25 34.31 48.96 35.27 48.73 C 37.73 48.14 40.24 47.71 42.76 47.47 C 45.83 47.15 48.91 46.99 52 47 C 55.09 46.99 58.17 47.15 61.24 47.47 C 63.76 47.71 66.27 48.14 68.73 48.73 C 69.69 48.96 70.63 49.25 71.56 49.59 C 72.28 49.84 72.97 50.16 73.62 50.54 C 74.05 50.77 74.44 51.08 74.76 51.45 C 74.9 51.6 74.98 51.8 75 52 C 74.98 52.2 74.9 52.4 74.76 52.55 C 74.44 52.92 74.05 53.23 73.62 53.46 C 72.97 53.84 72.28 54.16 71.56 54.41 C 70.63 54.75 69.69 55.04 68.73 55.27 C 66.27 55.86 63.76 56.29 61.24 56.53 C 58.17 56.85 55.09 57.01 52 57 C 48.91 57.01 45.83 56.85 42.76 56.53 C 40.24 56.29 37.73 55.86 35.27 55.27 C 34.31 55.04 33.37 54.75 32.44 54.41 C 31.72 54.16 31.03 53.84 30.38 53.46 C 29.95 53.23 29.56 52.92 29.24 52.55 C 29.1 52.4 29.02 52.2 29 52 Z " fill-rule="evenodd" fill="rgb(255,255,255)"/><path d=" M 36.948 55.776 C 37.145 57.565 37.492 59.335 37.98 61.07 C 38.7 63.68 39.84 66.16 41.34 68.41 C 42.01 69.41 42.77 70.34 43.62 71.19 C 44.4 71.98 45.27 72.68 46.21 73.27 C 46.99 73.77 47.826 74.167 48.702 74.441 C 48.31 73.739 47.98 73.002 47.71 72.24 C 47.34 71.24 47.04 70.23 46.79 69.2 C 46.17 66.65 45.73 64.05 45.48 61.44 C 45.317 59.889 45.196 58.336 45.137 56.781 C 45.795 56.818 46.452 56.856 47.144 56.871 C 47.203 58.331 47.318 59.786 47.47 61.24 C 47.71 63.76 48.14 66.27 48.73 68.73 C 48.96 69.69 49.25 70.63 49.59 71.56 C 49.84 72.28 50.16 72.97 50.54 73.62 C 50.77 74.05 51.08 74.44 51.45 74.76 C 51.6 74.9 51.8 74.98 52 75 L 52 75 L 52 75 C 52.2 74.98 52.4 74.9 52.55 74.76 C 52.92 74.44 53.23 74.05 53.46 73.62 C 53.84 72.97 54.16 72.28 54.41 71.56 C 54.75 70.63 55.04 69.69 55.27 68.73 C 55.86 66.27 56.29 63.76 56.53 61.24 C 56.682 59.786 56.797 58.331 56.856 56.871 C 57.548 56.856 58.205 56.818 58.863 56.781 C 58.804 58.336 58.683 59.889 58.52 61.44 C 58.27 64.05 57.83 66.65 57.21 69.2 C 56.96 70.23 56.66 71.24 56.29 72.24 C 56.02 73.002 55.69 73.739 55.298 74.441 C 56.174 74.167 57.01 73.77 57.79 73.27 C 58.73 72.68 59.6 71.98 60.38 71.19 C 61.23 70.34 61.99 69.41 62.66 68.41 C 64.16 66.16 65.3 63.68 66.02 61.07 C 66.508 59.335 66.855 57.565 67.052 55.776 C 67.794 55.639 68.487 55.491 69.109 55.329 C 68.916 57.451 68.525 59.552 67.94 61.61 C 67.16 64.42 65.94 67.09 64.33 69.52 C 63.58 70.63 62.74 71.66 61.8 72.6 C 61.673 72.728 61.545 72.854 61.413 72.977 C 63.942 71.851 66.266 70.259 68.26 68.26 C 72.58 63.95 75 58.1 75 52 C 75 52 75 52 75 52 L 77 52 C 77 52 77 52 77 52 C 77 58.63 74.36 64.99 69.68 69.68 C 64.99 74.36 58.63 77 52 77 L 52 77 L 52 77 L 52 77 C 45.37 77 39.01 74.36 34.32 69.68 C 29.64 64.99 27 58.63 27 52 L 27 52 L 27 52 L 27 52 C 27 52 27 52 27 52 L 29 52 C 29 52 29 52 29 52 L 29 52 C 29 58.1 31.42 63.95 35.74 68.26 C 37.734 70.259 40.058 71.851 42.587 72.977 C 42.455 72.854 42.327 72.728 42.2 72.6 C 41.26 71.66 40.42 70.63 39.67 69.52 C 38.06 67.09 36.84 64.42 36.06 61.61 C 35.475 59.552 35.084 57.451 34.891 55.329 C 35.513 55.491 36.206 55.639 36.948 55.776 Z " fill="rgb(255,255,255)"/><path d=" M 72.293 63.271 C 68.038 65.511 60.536 67 52 67 C 43.464 67 35.962 65.511 31.707 63.271" fill="none" vector-effect="non-scaling-stroke" stroke-width="2" stroke="rgb(255,255,255)" stroke-linejoin="miter" stroke-linecap="square" stroke-miterlimit="3"/><path d=" M 41 56.29 Q 38.032 50.375 38 47 C 37.938 40.438 40.426 36.453 38 33 C 37.156 32.078 36.635 31.544 35.707 31 Q 34.828 30.484 33.29 30.077 C 33.13 30.034 33.08 29.892 33.179 29.759 Q 33.813 28.906 35.27 29 Q 37.841 29.165 39 30 Q 41.938 28.906 44 29 C 46.063 29.094 47.807 29.887 49.59 31 C 51.373 32.113 51.932 32.809 53 34 C 54.905 36.125 55.643 38.513 57 41 C 58.086 42.99 58.913 44.721 60 46.71 C 61.025 48.585 62.1 50.392 63 52 Q 63.9 53.608 65 56.53 L 56 58 L 42.56 58 L 41 56.29 Z  M 43 33 C 43 32.448 43.448 32 44 32 C 44.552 32 45 32.448 45 33 C 45 33.552 44.552 34 44 34 C 43.448 34 43 33.552 43 33 Z " fill-rule="evenodd" fill="rgb(255,255,255)"/></g></g></svg>