<?xml version="1.0" encoding="UTF-8" standalone="no"?>
<!DOCTYPE svg PUBLIC "-//W3C//DTD SVG 1.1//EN" "http://www.w3.org/Graphics/SVG/1.1/DTD/svg11.dtd">
<svg width="100%" height="100%" viewBox="0 0 104 104" version="1.1" xmlns="http://www.w3.org/2000/svg" xmlns:xlink="http://www.w3.org/1999/xlink" xml:space="preserve" xmlns:serif="http://www.serif.com/" style="fill-rule:evenodd;clip-rule:evenodd;stroke-linejoin:round;stroke-miterlimit:2;">
    <circle cx="52" cy="52" r="52" style="fill:rgb(141,59,255);"/>
    <g transform="matrix(1,0,0,1,0.251017,0.12146)">
        <path d="M79.177,64.52C78.699,64.79 78.462,64.954 77.68,65.33C76.233,66.026 74.02,66.95 71.701,67.6C72.09,66.58 72.43,65.54 72.72,64.491C73.25,62.64 73.651,60.77 73.93,58.87C74.071,58.84 74.22,58.8 74.361,58.77C75.701,58.45 77.01,58.06 78.31,57.58C79.38,57.2 80.401,56.731 81.38,56.17C81.46,56.12 81.54,56.08 81.621,56.031C81.22,59.06 80.467,61.781 79.177,64.52ZM73.14,73.14C70.55,75.741 67.531,77.81 64.241,79.27C64.411,79.111 64.571,78.95 64.741,78.781C65.96,77.56 67.05,76.22 68.031,74.781C68.821,73.59 69.531,72.361 70.17,71.09C72.491,70.55 74.611,69.91 76.47,69.17C75.491,70.58 74.371,71.91 73.14,73.14M59.531,79.651C58.51,80.3 57.43,80.821 56.29,81.17C56.8,80.26 57.231,79.3 57.581,78.31C58.06,77.01 58.451,75.7 58.77,74.361C58.901,73.821 59.031,73.281 59.14,72.731C61.831,72.52 64.411,72.2 66.831,71.77C66.531,72.3 66.201,72.821 65.861,73.33C64.991,74.63 64,75.84 62.89,76.95C61.88,77.97 60.75,78.88 59.531,79.651M55.13,77.43C54.81,78.361 54.39,79.26 53.901,80.111C53.6,80.67 53.201,81.17 52.72,81.59C52.52,81.77 52.26,81.87 52,81.901C51.741,81.87 51.48,81.77 51.281,81.59C50.8,81.17 50.4,80.67 50.101,80.111C49.61,79.26 49.19,78.361 48.871,77.43C48.42,76.22 48.05,75 47.75,73.75C47.681,73.46 47.61,73.18 47.55,72.89C49.01,72.96 50.5,73 52,73C53.5,73 54.991,72.96 56.451,72.89C56.39,73.18 56.321,73.46 56.25,73.75C55.951,75 55.581,76.22 55.13,77.43M44.47,79.651C43.25,78.88 42.121,77.97 41.11,76.95C40,75.84 39.01,74.63 38.141,73.33C37.8,72.821 37.47,72.3 37.17,71.77C39.59,72.2 42.17,72.52 44.86,72.731C44.97,73.281 45.101,73.821 45.23,74.361C45.55,75.7 45.94,77.01 46.42,78.31C46.77,79.3 47.201,80.26 47.71,81.17C46.57,80.821 45.491,80.3 44.47,79.651M30.86,73.14C29.63,71.91 28.51,70.58 27.531,69.17C29.391,69.91 31.51,70.55 33.831,71.09C34.47,72.361 35.181,73.59 35.97,74.781C36.951,76.22 38.04,77.56 39.26,78.781C39.42,78.95 39.59,79.111 39.76,79.27C36.47,77.81 33.451,75.741 30.86,73.14M22.621,56.17C23.59,56.731 24.621,57.2 25.69,57.58C26.991,58.06 28.3,58.45 29.641,58.77C29.781,58.8 29.931,58.84 30.07,58.87C30.351,60.77 30.75,62.64 31.281,64.491C31.57,65.54 31.911,66.58 32.3,67.6C29.98,66.95 27.96,66.191 26.32,65.33L24.865,64.57C24.666,64.15 24.56,63.87 24.38,63.441C23.4,61.08 22.72,58.59 22.38,56.031C22.46,56.08 22.54,56.12 22.621,56.17M22.411,51.3C22.831,50.8 23.331,50.4 23.891,50.1C24.741,49.61 25.641,49.19 26.57,48.87C27.781,48.42 29,48.05 30.25,47.75C31.46,47.46 32.681,47.2 33.911,46.96C34.27,49.71 35.531,53.25 37.701,57.58L37.75,57.64C35.23,57.31 32.72,56.84 30.25,56.25C29,55.95 27.781,55.58 26.57,55.13C25.641,54.81 24.741,54.39 23.891,53.901C23.331,53.6 22.831,53.2 22.411,52.72C22.23,52.52 22.13,52.26 22.101,52C22.13,51.741 22.23,51.491 22.411,51.3M41.601,26C42.32,26 42.9,26.58 42.9,27.3C42.9,28.02 42.32,28.6 41.601,28.6C40.88,28.6 40.3,28.02 40.3,27.3C40.3,26.58 40.88,26 41.601,26M46.11,64.01C46,62.991 45.911,61.97 45.84,60.941C47.891,61.05 49.94,61.111 52,61.1C54.06,61.111 56.111,61.05 58.161,60.941C58.09,61.97 58,62.991 57.89,64.01C57.71,65.97 57.43,67.91 57.081,69.85C55.411,69.95 53.71,70 52,70C50.29,70 48.59,69.95 46.92,69.85C46.57,67.91 46.29,65.97 46.11,64.01M33.77,63.79C33.371,62.361 33.05,60.92 32.8,59.46C35.09,59.92 37.4,60.25 39.73,60.481C40.891,60.6 42.06,60.7 43.22,60.781C43.29,61.95 43.4,63.111 43.52,64.27C43.701,66.08 43.94,67.87 44.26,69.66C41.11,69.39 38.121,68.95 35.411,68.361C34.75,66.88 34.201,65.35 33.77,63.79M70.231,63.79C69.8,65.35 69.25,66.88 68.59,68.361C65.88,68.95 62.89,69.39 59.741,69.66C60.06,67.87 60.3,66.08 60.481,64.27C60.6,63.111 60.71,61.95 60.781,60.781C61.941,60.7 63.111,60.6 64.27,60.481C66.6,60.25 68.911,59.92 71.201,59.46C70.951,60.92 70.63,62.361 70.231,63.79M64.01,46.11C67.29,46.42 70.55,46.98 73.75,47.75C75,48.05 76.22,48.42 77.43,48.87C78.361,49.19 79.26,49.61 80.111,50.1C80.67,50.4 81.17,50.8 81.59,51.281C81.77,51.48 81.871,51.741 81.901,52C81.871,52.26 81.77,52.52 81.59,52.72C81.17,53.2 80.67,53.6 80.111,53.901C79.26,54.39 78.361,54.81 77.43,55.13C76.22,55.58 75,55.95 73.75,56.25C72.071,56.651 70.38,57 68.67,57.281C67.81,55.04 67.02,53.281 66.3,52C65.27,50.17 64.071,48.13 62.89,46.01C63.26,46.031 63.64,46.07 64.01,46.11M83.54,49.57C82.93,48.87 82.201,48.281 81.38,47.83C80.401,47.27 79.38,46.8 78.31,46.42C77.01,45.94 75.701,45.55 74.361,45.23C71.04,44.42 67.67,43.85 64.27,43.52C63.31,43.42 62.361,43.33 61.401,43.26C60.441,41.41 59.56,39.65 58.5,37.7C56.741,34.47 55.781,31.36 53.3,28.6C51.911,27.05 51.19,26.15 48.871,24.7C46.55,23.25 44.281,22.22 41.601,22.1C39.81,22.02 37.65,22.45 35.101,23.4C34.101,22.68 32.48,22.241 30.25,22.1C28.991,22.02 28.081,22.35 27.531,23.09C27.4,23.26 27.47,23.44 27.681,23.5C29.01,23.85 30.06,24.25 30.82,24.7C32.031,25.41 32.701,26.1 33.8,27.3C36.81,31.58 34,36.5 33.82,44.35C32.42,44.6 31.031,44.89 29.641,45.23C28.3,45.55 26.991,45.94 25.69,46.42C24.621,46.8 23.59,47.27 22.621,47.83C21.8,48.281 21.07,48.87 20.46,49.57C19.86,50.23 19.531,51.1 19.5,52C19.5,60.62 22.931,68.89 29.02,74.981C32.06,78.02 35.661,80.401 39.56,82.02C43.47,83.64 47.69,84.5 52,84.5C60.621,84.5 68.89,81.071 74.981,74.981C78.02,71.941 80.401,68.34 82.02,64.441C83.64,60.531 84.5,56.31 84.5,52C84.47,51.1 84.14,50.241 83.54,49.57" style="fill:white;"/>
    </g>
</svg>
