<?xml version="1.0" standalone="no"?><!-- Generator: Gravit.io --><svg xmlns="http://www.w3.org/2000/svg" xmlns:xlink="http://www.w3.org/1999/xlink" style="isolation:isolate" viewBox="0 0 64 64" width="64" height="64"><defs><clipPath id="_clipPath_ytjGoFGtJrcYP7dRUt5PehlMewSgNxfe"><rect width="64" height="64"/></clipPath></defs><g clip-path="url(#_clipPath_ytjGoFGtJrcYP7dRUt5PehlMewSgNxfe)"><rect width="64" height="64" style="fill:rgb(255,60,60)" fill-opacity="0"/><g><rect x="0" y="0" width="64" height="64" transform="matrix(1,0,0,1,0,0)" fill="none"/><path d=" M 7 32 C 7.02 31.31 7.28 30.64 7.74 30.13 C 8.21 29.59 8.77 29.14 9.4 28.79 C 10.15 28.36 10.94 28 11.76 27.71 C 12.76 27.34 13.77 27.04 14.8 26.79 C 17.35 26.17 19.95 25.73 22.56 25.48 C 25.7 25.15 28.85 24.99 32 25 C 35.15 24.99 38.3 25.15 41.44 25.48 C 44.05 25.73 46.65 26.17 49.2 26.79 C 50.23 27.04 51.24 27.34 52.24 27.71 C 53.06 28 53.85 28.36 54.6 28.79 C 55.23 29.14 55.79 29.59 56.26 30.13 C 56.72 30.65 56.98 31.31 57 32 C 56.98 32.69 56.72 33.35 56.26 33.87 C 55.79 34.41 55.23 34.86 54.6 35.21 C 53.85 35.64 53.06 36 52.24 36.29 C 51.24 36.66 50.23 36.96 49.2 37.21 C 46.65 37.83 44.05 38.27 41.44 38.52 C 38.3 38.85 35.15 39.01 32 39 C 28.85 39.01 25.7 38.85 22.56 38.52 C 19.95 38.27 17.35 37.83 14.8 37.21 C 13.77 36.96 12.76 36.66 11.76 36.29 C 10.94 36 10.15 35.64 9.4 35.21 C 8.77 34.86 8.21 34.41 7.74 33.87 C 7.28 33.35 7.02 32.69 7 32 Z  M 9 32 C 9.02 31.8 9.1 31.61 9.24 31.46 C 9.56 31.08 9.95 30.77 10.38 30.54 C 11.03 30.16 11.72 29.84 12.44 29.59 C 13.37 29.25 14.31 28.96 15.27 28.73 C 17.73 28.14 20.24 27.71 22.76 27.47 C 25.83 27.15 28.91 26.99 32 27 C 35.09 26.99 38.17 27.15 41.24 27.47 C 43.76 27.71 46.27 28.14 48.73 28.73 C 49.69 28.96 50.63 29.25 51.56 29.59 C 52.28 29.84 52.97 30.16 53.62 30.54 C 54.05 30.77 54.44 31.08 54.76 31.45 C 54.9 31.6 54.98 31.8 55 32 C 54.98 32.2 54.9 32.4 54.76 32.55 C 54.44 32.92 54.05 33.23 53.62 33.46 C 52.97 33.84 52.28 34.16 51.56 34.41 C 50.63 34.75 49.69 35.04 48.73 35.27 C 46.27 35.86 43.76 36.29 41.24 36.53 C 38.17 36.85 35.09 37.01 32 37 C 28.91 37.01 25.83 36.85 22.76 36.53 C 20.24 36.29 17.73 35.86 15.27 35.27 C 14.31 35.04 13.37 34.75 12.44 34.41 C 11.72 34.16 11.03 33.84 10.38 33.46 C 9.95 33.23 9.56 32.92 9.24 32.55 C 9.1 32.4 9.02 32.2 9 32 Z " fill-rule="evenodd" fill="rgb(255,255,255)"/><path d=" M 16.948 35.776 C 17.145 37.565 17.492 39.335 17.98 41.07 C 18.7 43.68 19.84 46.16 21.34 48.41 C 22.01 49.41 22.77 50.34 23.62 51.19 C 24.4 51.98 25.27 52.68 26.21 53.27 C 26.99 53.77 27.826 54.167 28.702 54.441 C 28.31 53.739 27.98 53.002 27.71 52.24 C 27.34 51.24 27.04 50.23 26.79 49.2 C 26.17 46.65 25.73 44.05 25.48 41.44 C 25.317 39.889 25.196 38.336 25.137 36.781 C 25.795 36.818 26.452 36.856 27.144 36.871 C 27.203 38.331 27.318 39.786 27.47 41.24 C 27.71 43.76 28.14 46.27 28.73 48.73 C 28.96 49.69 29.25 50.63 29.59 51.56 C 29.84 52.28 30.16 52.97 30.54 53.62 C 30.77 54.05 31.08 54.44 31.45 54.76 C 31.6 54.9 31.8 54.98 32 55 L 32 55 L 32 55 C 32.2 54.98 32.4 54.9 32.55 54.76 C 32.92 54.44 33.23 54.05 33.46 53.62 C 33.84 52.97 34.16 52.28 34.41 51.56 C 34.75 50.63 35.04 49.69 35.27 48.73 C 35.86 46.27 36.29 43.76 36.53 41.24 C 36.682 39.786 36.797 38.331 36.856 36.871 C 37.548 36.856 38.205 36.818 38.863 36.781 C 38.804 38.336 38.683 39.889 38.52 41.44 C 38.27 44.05 37.83 46.65 37.21 49.2 C 36.96 50.23 36.66 51.24 36.29 52.24 C 36.02 53.002 35.69 53.739 35.298 54.441 C 36.174 54.167 37.01 53.77 37.79 53.27 C 38.73 52.68 39.6 51.98 40.38 51.19 C 41.23 50.34 41.99 49.41 42.66 48.41 C 44.16 46.16 45.3 43.68 46.02 41.07 C 46.508 39.335 46.855 37.565 47.052 35.776 C 47.794 35.639 48.487 35.491 49.109 35.329 C 48.916 37.451 48.525 39.552 47.94 41.61 C 47.16 44.42 45.94 47.09 44.33 49.52 C 43.58 50.63 42.74 51.66 41.8 52.6 C 41.673 52.728 41.545 52.854 41.413 52.977 C 43.942 51.851 46.266 50.259 48.26 48.26 C 52.58 43.95 55 38.1 55 32 C 55 32 55 32 55 32 L 57 32 C 57 32 57 32 57 32 C 57 38.63 54.36 44.99 49.68 49.68 C 44.99 54.36 38.63 57 32 57 L 32 57 L 32 57 L 32 57 C 25.37 57 19.01 54.36 14.32 49.68 C 9.64 44.99 7 38.63 7 32 L 7 32 L 7 32 L 7 32 C 7 32 7 32 7 32 L 9 32 C 9 32 9 32 9 32 L 9 32 C 9 38.1 11.42 43.95 15.74 48.26 C 17.734 50.259 20.058 51.851 22.587 52.977 C 22.455 52.854 22.327 52.728 22.2 52.6 C 21.26 51.66 20.42 50.63 19.67 49.52 C 18.06 47.09 16.84 44.42 16.06 41.61 C 15.475 39.552 15.084 37.451 14.891 35.329 C 15.513 35.491 16.206 35.639 16.948 35.776 Z " fill="rgb(255,255,255)"/><path d=" M 52.293 43.271 C 48.038 45.511 40.536 47 32 47 C 23.464 47 15.962 45.511 11.707 43.271" fill="none" vector-effect="non-scaling-stroke" stroke-width="2" stroke="rgb(255,255,255)" stroke-linejoin="miter" stroke-linecap="square" stroke-miterlimit="3"/><path d=" M 21 36.29 Q 18.032 30.375 18 27 C 17.938 20.438 20.426 16.453 18 13 C 17.156 12.078 16.635 11.544 15.707 11 Q 14.828 10.484 13.29 10.077 C 13.13 10.034 13.08 9.892 13.179 9.759 Q 13.813 8.906 15.27 9 Q 17.841 9.165 19 10 Q 21.938 8.906 24 9 C 26.063 9.094 27.807 9.887 29.59 11 C 31.373 12.113 31.932 12.809 33 14 C 34.905 16.125 35.643 18.513 37 21 C 38.086 22.99 38.913 24.721 40 26.71 C 41.025 28.585 42.1 30.392 43 32 Q 43.9 33.608 45 36.53 L 36 38 L 22.56 38 L 21 36.29 Z  M 23 13 C 23 12.448 23.448 12 24 12 C 24.552 12 25 12.448 25 13 C 25 13.552 24.552 14 24 14 C 23.448 14 23 13.552 23 13 Z " fill-rule="evenodd" fill="rgb(255,255,255)"/></g></g></svg>