<?xml version="1.0" encoding="UTF-8" standalone="no"?><!-- Generator: Gravit.io --><svg xmlns="http://www.w3.org/2000/svg" xmlns:xlink="http://www.w3.org/1999/xlink" style="isolation:isolate" viewBox="0 0 104 104" width="104pt" height="104pt"><defs><clipPath id="_clipPath_3MsZuUPQcyfGsMi5Sen8ymj8Z6KlRfFv"><rect width="104" height="104"/></clipPath></defs><g clip-path="url(#_clipPath_3MsZuUPQcyfGsMi5Sen8ymj8Z6KlRfFv)"><clipPath id="_clipPath_Eu2NEy51fXitGeLtq87HkpUn6FDHr1If"><rect x="0" y="0" width="104" height="104" transform="matrix(1,0,0,1,0,0)" fill="rgb(255,255,255)"/></clipPath><g clip-path="url(#_clipPath_Eu2NEy51fXitGeLtq87HkpUn6FDHr1If)"><g><g><circle vector-effect="non-scaling-stroke" cx="52.00000000000001" cy="52.00000000000001" r="52" fill="rgb(141,59,255)"/></g><g><rect x="10.4" y="10.4" width="83.2" height="83.2" transform="matrix(1,0,0,1,0,0)" fill="none"/><path d=" M 19.5 52 C 19.526 51.103 19.864 50.232 20.462 49.569 C 21.073 48.867 21.801 48.282 22.62 47.827 C 23.595 47.268 24.622 46.8 25.688 46.423 C 26.988 45.942 28.301 45.552 29.64 45.227 C 32.955 44.421 36.335 43.849 39.728 43.524 C 43.81 43.095 47.905 42.887 52 42.9 C 56.095 42.887 60.19 43.095 64.272 43.524 C 67.665 43.849 71.045 44.421 74.36 45.227 C 75.699 45.552 77.012 45.942 78.312 46.423 C 79.378 46.8 80.405 47.268 81.38 47.827 C 82.199 48.282 82.927 48.867 83.538 49.569 C 84.136 50.245 84.474 51.103 84.5 52 C 84.474 52.897 84.136 53.755 83.538 54.431 C 82.927 55.133 82.199 55.718 81.38 56.173 C 80.405 56.732 79.378 57.2 78.312 57.577 C 77.012 58.058 75.699 58.448 74.36 58.773 C 71.045 59.579 67.665 60.151 64.272 60.476 C 60.19 60.905 56.095 61.113 52 61.1 C 47.905 61.113 43.81 60.905 39.728 60.476 C 36.335 60.151 32.955 59.579 29.64 58.773 C 28.301 58.448 26.988 58.058 25.688 57.577 C 24.622 57.2 23.595 56.732 22.62 56.173 C 21.801 55.718 21.073 55.133 20.462 54.431 C 19.864 53.755 19.526 52.897 19.5 52 Z  M 22.1 52 C 22.126 51.74 22.23 51.493 22.412 51.298 C 22.828 50.804 23.335 50.401 23.894 50.102 C 24.739 49.608 25.636 49.192 26.572 48.867 C 27.781 48.425 29.003 48.048 30.251 47.749 C 33.449 46.982 36.712 46.423 39.988 46.111 C 43.979 45.695 47.983 45.487 52 45.5 C 56.017 45.487 60.021 45.695 64.012 46.111 C 67.288 46.423 70.551 46.982 73.749 47.749 C 74.997 48.048 76.219 48.425 77.428 48.867 C 78.364 49.192 79.261 49.608 80.106 50.102 C 80.665 50.401 81.172 50.804 81.588 51.285 C 81.77 51.48 81.874 51.74 81.9 52 C 81.874 52.26 81.77 52.52 81.588 52.715 C 81.172 53.196 80.665 53.599 80.106 53.898 C 79.261 54.392 78.364 54.808 77.428 55.133 C 76.219 55.575 74.997 55.952 73.749 56.251 C 70.551 57.018 67.288 57.577 64.012 57.889 C 60.021 58.305 56.017 58.513 52 58.5 C 47.983 58.513 43.979 58.305 39.988 57.889 C 36.712 57.577 33.449 57.018 30.251 56.251 C 29.003 55.952 27.781 55.575 26.572 55.133 C 25.636 54.808 24.739 54.392 23.894 53.898 C 23.335 53.599 22.828 53.196 22.412 52.715 C 22.23 52.52 22.126 52.26 22.1 52 Z " fill-rule="evenodd" fill="rgb(255,255,255)"/><path d=" M 32.432 56.909 C 32.689 59.234 33.14 61.535 33.774 63.791 C 34.71 67.184 36.192 70.408 38.142 73.333 C 39.013 74.633 40.001 75.842 41.106 76.947 C 42.12 77.974 43.251 78.884 44.473 79.651 C 45.487 80.301 46.574 80.817 47.713 81.173 C 47.203 80.261 46.774 79.303 46.423 78.312 C 45.942 77.012 45.552 75.699 45.227 74.36 C 44.421 71.045 43.849 67.665 43.524 64.272 C 43.312 62.256 43.155 60.237 43.078 58.215 C 43.933 58.263 44.788 58.313 45.687 58.332 C 45.764 60.23 45.913 62.122 46.111 64.012 C 46.423 67.288 46.982 70.551 47.749 73.749 C 48.048 74.997 48.425 76.219 48.867 77.428 C 49.192 78.364 49.608 79.261 50.102 80.106 C 50.401 80.665 50.804 81.172 51.285 81.588 C 51.48 81.77 51.74 81.874 52 81.9 L 52 81.9 L 52 81.9 C 52.26 81.874 52.52 81.77 52.715 81.588 C 53.196 81.172 53.599 80.665 53.898 80.106 C 54.392 79.261 54.808 78.364 55.133 77.428 C 55.575 76.219 55.952 74.997 56.251 73.749 C 57.018 70.551 57.577 67.288 57.889 64.012 C 58.087 62.122 58.236 60.23 58.313 58.332 C 59.212 58.313 60.067 58.263 60.922 58.215 C 60.845 60.237 60.688 62.256 60.476 64.272 C 60.151 67.665 59.579 71.045 58.773 74.36 C 58.448 75.699 58.058 77.012 57.577 78.312 C 57.226 79.303 56.797 80.261 56.287 81.173 C 57.426 80.817 58.513 80.301 59.527 79.651 C 60.749 78.884 61.88 77.974 62.894 76.947 C 63.999 75.842 64.987 74.633 65.858 73.333 C 67.808 70.408 69.29 67.184 70.226 63.791 C 70.86 61.535 71.312 59.234 71.568 56.909 C 72.532 56.731 73.433 56.538 74.242 56.328 C 73.991 59.086 73.483 61.818 72.722 64.493 C 71.708 68.146 70.122 71.617 68.029 74.776 C 67.054 76.219 65.962 77.558 64.74 78.78 C 64.575 78.946 64.408 79.11 64.237 79.27 C 67.525 77.806 70.546 75.737 73.138 73.138 C 78.754 67.535 81.9 59.93 81.9 52 C 81.9 52 81.9 52 81.9 52 L 84.5 52 C 84.5 52 84.5 52 84.5 52 C 84.5 60.619 81.068 68.887 74.984 74.984 C 68.887 81.068 60.619 84.5 52 84.5 L 52 84.5 L 52 84.5 L 52 84.5 C 43.381 84.5 35.113 81.068 29.016 74.984 C 22.932 68.887 19.5 60.619 19.5 52 L 19.5 52 L 19.5 52 L 19.5 52 C 19.5 52 19.5 52 19.5 52 L 22.1 52 C 22.1 52 22.1 52 22.1 52 L 22.1 52 C 22.1 59.93 25.246 67.535 30.862 73.138 C 33.454 75.737 36.475 77.806 39.763 79.27 C 39.592 79.11 39.425 78.946 39.26 78.78 C 38.038 77.558 36.946 76.219 35.971 74.776 C 33.878 71.617 32.292 68.146 31.278 64.493 C 30.517 61.818 30.009 59.086 29.758 56.328 C 30.567 56.538 31.468 56.731 32.432 56.909 Z " fill="rgb(255,255,255)"/><path d=" M 78.381 66.652 C 72.849 69.564 63.097 71.5 52 71.5 C 40.903 71.5 31.151 69.564 25.619 66.652" fill="none" vector-effect="non-scaling-stroke" stroke-width="3" stroke="rgb(255,255,255)" stroke-opacity="100" stroke-linejoin="miter" stroke-linecap="square" stroke-miterlimit="3"/><path d=" M 37.7 57.577 Q 33.842 49.887 33.8 45.5 C 33.719 36.969 36.954 31.789 33.8 27.3 C 32.703 26.101 32.025 25.407 30.819 24.7 Q 29.676 24.029 27.677 23.5 C 27.469 23.444 27.404 23.26 27.533 23.087 Q 28.357 21.978 30.251 22.1 Q 33.593 22.315 35.1 23.4 Q 38.919 21.978 41.6 22.1 C 44.282 22.222 46.549 23.253 48.867 24.7 C 51.185 26.147 51.912 27.052 53.3 28.6 C 55.776 31.362 56.736 34.467 58.5 37.7 C 59.912 40.287 60.987 42.537 62.4 45.123 C 63.733 47.56 65.13 49.91 66.3 52 Q 67.47 54.09 68.9 57.889 L 57.2 59.8 L 39.728 59.8 L 37.7 57.577 Z  M 40.3 27.3 C 40.3 26.582 40.882 26 41.6 26 C 42.318 26 42.9 26.582 42.9 27.3 C 42.9 28.018 42.318 28.6 41.6 28.6 C 40.882 28.6 40.3 28.018 40.3 27.3 Z " fill-rule="evenodd" fill="rgb(255,255,255)"/></g></g></g></g></svg>