<?xml version="1.0" standalone="no"?>
<!DOCTYPE svg PUBLIC "-//W3C//DTD SVG 20010904//EN"
 "http://www.w3.org/TR/2001/REC-SVG-20010904/DTD/svg10.dtd">
<svg version="1.0" xmlns="http://www.w3.org/2000/svg"
 width="700.000000pt" height="700.000000pt" viewBox="0 0 700.000000 700.000000"
 preserveAspectRatio="xMidYMid meet">
<metadata>
Created by potrace 1.11, written by Peter Selinger 2001-2013
</metadata>
<g transform="translate(0.000000,700.000000) scale(0.100000,-0.100000)"
fill="#000000" stroke="none">
<path d="M1566 6008 c-66 -14 -126 -60 -126 -97 0 -5 26 -17 58 -26 168 -49
282 -114 396 -230 138 -138 190 -270 190 -480 0 -58 -11 -206 -19 -244 -2 -10
-6 -36 -9 -57 -4 -22 -11 -68 -17 -104 -12 -74 -12 -75 -28 -190 -7 -47 -14
-96 -16 -110 -3 -14 -8 -65 -11 -115 -4 -49 -8 -97 -10 -105 -1 -8 -3 -36 -3
-61 l-1 -45 -157 -32 c-620 -125 -977 -311 -1036 -541 -19 -73 -10 -299 19
-471 3 -19 7 -46 9 -60 21 -148 86 -375 157 -555 42 -107 138 -302 169 -346
10 -15 19 -30 19 -33 0 -12 97 -156 177 -264 98 -130 280 -323 397 -420 45
-37 83 -69 86 -72 3 -3 34 -27 70 -52 36 -26 70 -51 76 -55 13 -10 27 -19 139
-87 185 -112 398 -207 608 -270 116 -35 315 -80 402 -91 28 -4 61 -9 75 -11
180 -28 525 -21 740 16 162 27 162 27 290 61 551 145 1042 466 1425 930 11 13
43 56 70 94 244 339 395 684 480 1095 3 16 21 131 30 190 8 57 19 240 18 311
0 65 -24 158 -46 182 -7 6 -25 28 -41 47 -86 105 -271 207 -521 289 -137 45
-393 110 -519 131 -28 5 -89 16 -136 24 -47 8 -105 18 -130 21 -25 3 -56 8
-70 10 -34 6 -93 13 -165 21 -33 3 -73 7 -90 10 -16 2 -70 6 -120 10 -49 3
-95 11 -102 17 -6 7 -47 80 -89 162 -42 83 -94 179 -114 215 -20 36 -93 182
-164 325 -168 343 -236 445 -428 642 -154 159 -387 303 -611 378 -159 53 -339
64 -497 31 -14 -3 -38 -8 -55 -12 -16 -3 -81 -21 -143 -40 l-112 -35 -64 30
c-119 57 -344 92 -450 69z m1111 -338 c73 -44 75 -141 3 -183 -81 -48 -168 14
-161 115 2 25 48 76 74 81 42 8 52 7 84 -13z m1833 -1674 c66 -6 145 -16 258
-31 72 -11 112 -17 217 -36 61 -11 124 -22 140 -25 183 -32 509 -130 644 -195
182 -87 265 -169 240 -238 -8 -21 -87 -101 -101 -101 -4 0 -13 -6 -20 -13 -11
-11 -148 -81 -213 -108 -77 -33 -295 -96 -430 -125 -11 -3 -40 -9 -65 -14 -25
-6 -56 -13 -70 -16 -14 -2 -32 -7 -40 -9 -24 -7 -112 -19 -143 -19 -26 -1 -30
5 -68 99 -66 162 -129 288 -241 485 -58 102 -118 208 -134 235 -15 28 -36 64
-46 80 -19 31 -23 49 -10 42 4 -3 41 -8 82 -11z m-2515 -168 c36 -181 138
-461 255 -700 55 -111 57 -107 -51 -88 -63 11 -87 15 -149 24 -84 13 -295 58
-410 87 -379 97 -649 241 -652 348 -3 86 182 203 462 295 118 38 334 93 440
111 19 3 36 8 39 11 2 2 14 4 26 4 19 0 23 -10 40 -92z m-708 -798 c95 -34
317 -100 346 -103 18 -1 23 -11 31 -67 8 -50 16 -93 21 -110 2 -8 7 -31 10
-50 22 -132 149 -543 194 -628 11 -20 9 -20 -78 4 -137 37 -314 102 -444 162
-55 24 -62 32 -95 97 -20 38 -51 104 -69 145 -19 41 -38 84 -43 95 -34 72
-120 373 -134 470 -3 22 -9 57 -12 77 l-5 37 95 -48 c52 -27 134 -63 183 -81z
m4699 93 c-13 -94 -19 -124 -42 -216 -48 -191 -108 -354 -196 -534 l-53 -106
-91 -43 c-79 -37 -329 -128 -381 -139 -10 -2 -30 -8 -45 -14 -16 -6 -28 -8
-28 -5 0 3 -6 2 -12 -3 -33 -20 -32 -4 4 86 73 181 175 557 194 718 l7 52 52
16 c29 8 58 15 64 15 34 0 332 109 421 154 58 29 107 54 108 55 2 0 1 -16 -2
-36z m-4006 -267 c41 -8 95 -17 120 -21 24 -4 47 -8 50 -10 3 -2 34 -6 70 -9
36 -4 76 -9 90 -11 14 -2 50 -7 80 -10 30 -3 75 -7 100 -10 25 -3 72 -7 105
-10 112 -10 165 -17 166 -24 0 -3 2 -26 4 -51 2 -25 6 -70 9 -100 4 -30 8 -82
11 -115 5 -60 14 -139 20 -185 6 -42 26 -183 32 -220 2 -19 11 -66 18 -105 9
-50 10 -72 2 -77 -6 -4 -14 -5 -17 -3 -3 2 -42 7 -85 10 -44 4 -88 9 -99 11
-10 2 -44 6 -75 9 -31 4 -67 8 -81 11 -14 2 -45 7 -70 10 -25 3 -92 14 -150
25 -122 21 -113 13 -183 173 -81 185 -139 376 -200 659 -17 77 -23 73 83 53z
m3125 -33 c-21 -151 -110 -459 -181 -632 -37 -88 -92 -201 -98 -201 -2 0 -39
-7 -82 -15 -116 -21 -132 -24 -219 -35 -44 -6 -95 -13 -113 -15 -33 -5 -67 -9
-172 -20 -30 -3 -67 -7 -82 -9 -16 -2 -28 -3 -28 -2 0 0 11 62 24 136 14 75
27 163 31 195 3 33 8 67 10 75 2 8 7 51 10 95 4 44 8 87 10 95 2 8 7 51 10 95
10 127 14 167 19 172 4 5 22 7 176 19 47 3 92 7 100 9 8 2 44 6 80 10 57 6
179 22 305 40 22 3 51 8 63 11 13 3 43 7 65 11 23 3 44 7 46 9 2 2 11 4 19 4
11 0 13 -10 7 -47z m-1655 -86 c179 0 379 1 445 4 l120 4 -1 -30 c-1 -33 -11
-148 -19 -235 -6 -58 -42 -334 -51 -385 -35 -202 -37 -209 -72 -216 -43 -9
-700 -9 -743 0 -28 6 -35 12 -41 41 -9 41 -29 154 -33 190 -2 14 -6 39 -9 55
-9 53 -14 88 -26 185 -17 150 -18 161 -25 240 -3 41 -8 93 -11 116 l-5 41 73
-4 c40 -3 219 -5 398 -6z m-2005 -555 c82 -36 320 -116 420 -141 39 -10 43
-15 90 -113 69 -140 190 -340 274 -451 70 -92 91 -116 185 -216 l51 -54 -128
66 c-275 143 -505 322 -722 564 -120 134 -311 406 -273 390 7 -3 54 -24 103
-45z m4219 36 c-106 -178 -233 -338 -393 -498 -201 -199 -403 -346 -643 -466
l-93 -46 37 38 c192 201 331 400 459 657 52 104 69 129 89 133 112 25 498 161
525 185 14 13 27 11 19 -3z m-3389 -267 c33 -6 78 -13 100 -16 22 -4 51 -8 65
-10 28 -5 72 -11 145 -20 28 -3 61 -8 75 -10 23 -3 170 -17 197 -18 7 0 15 -7
17 -16 4 -13 48 -201 61 -263 24 -113 103 -342 156 -457 22 -46 38 -85 37 -87
-7 -6 -116 39 -185 76 -276 152 -531 419 -718 752 -45 79 -48 90 -27 84 9 -3
44 -10 77 -15z m2529 -13 c-152 -299 -392 -578 -639 -743 -72 -48 -231 -128
-275 -138 -25 -6 -25 -6 17 80 34 69 112 282 129 353 2 8 8 33 14 55 6 22 25
99 41 170 16 72 32 137 35 146 3 13 25 18 97 23 50 4 103 9 117 11 14 2 50 6
80 10 82 9 310 45 350 55 19 4 38 8 43 9 4 1 0 -14 -9 -31z m-909 -103 c-82
-370 -172 -620 -272 -752 -79 -106 -127 -121 -194 -60 -117 105 -245 424 -324
812 -4 20 1 20 395 20 394 0 399 0 395 -20z"/>
</g>
</svg>
