<svg version="1" xmlns="http://www.w3.org/2000/svg" width="933.333" height="933.333" viewBox="0 0 700.000000 700.000000"><path d="M156.6 99.2c-6.6 1.4-12.6 6-12.6 9.7 0 .5 2.6 1.7 5.8 2.6 16.8 4.9 28.2 11.4 39.6 23 13.8 13.8 19 27 19 48 0 5.8-1.1 20.6-1.9 24.4-.2 1-.6 3.6-.9 5.7-.4 2.2-1.1 6.8-1.7 10.4-1.2 7.4-1.2 7.5-2.8 19-.7 4.7-1.4 9.6-1.6 11-.3 1.4-.8 6.5-1.1 11.5-.4 4.9-.8 9.7-1 10.5-.1.8-.3 3.6-.3 6.1l-.1 4.5-15.7 3.2c-62 12.5-97.7 31.1-103.6 54.1-1.9 7.3-1 29.9 1.9 47.1.3 1.9.7 4.6.9 6 2.1 14.8 8.6 37.5 15.7 55.5 4.2 10.7 13.8 30.2 16.9 34.6 1 1.5 1.9 3 1.9 3.3 0 1.2 9.7 15.6 17.7 26.4 9.8 13 28 32.3 39.7 42 4.5 3.7 8.3 6.9 8.6 7.2.3.3 3.4 2.7 7 5.2 3.6 2.6 7 5.1 7.6 5.5 1.3 1 2.7 1.9 13.9 8.7 18.5 11.2 39.8 20.7 60.8 27 11.6 3.5 31.5 8 40.2 9.1 2.8.4 6.1.9 7.5 1.1 18 2.8 52.5 2.1 74-1.6 16.2-2.7 16.2-2.7 29-6.1 55.1-14.5 104.2-46.6 142.5-93 1.1-1.3 4.3-5.6 7-9.4 24.4-33.9 39.5-68.4 48-109.5.3-1.6 2.1-13.1 3-19 .8-5.7 1.9-24 1.8-31.1 0-6.5-2.4-15.8-4.6-18.2-.7-.6-2.5-2.8-4.1-4.7-8.6-10.5-27.1-20.7-52.1-28.9-13.7-4.5-39.3-11-51.9-13.1-2.8-.5-8.9-1.6-13.6-2.4-4.7-.8-10.5-1.8-13-2.1-2.5-.3-5.6-.8-7-1-3.4-.6-9.3-1.3-16.5-2.1-3.3-.3-7.3-.7-9-1-1.6-.2-7-.6-12-1-4.9-.3-9.5-1.1-10.2-1.7-.6-.7-4.7-8-8.9-16.2-4.2-8.3-9.4-17.9-11.4-21.5-2-3.6-9.3-18.2-16.4-32.5-16.8-34.3-23.6-44.5-42.8-64.2-15.4-15.9-38.7-30.3-61.1-37.8-15.9-5.3-33.9-6.4-49.7-3.1-1.4.3-3.8.8-5.5 1.2-1.6.3-8.1 2.1-14.3 4l-11.2 3.5-6.4-3c-11.9-5.7-34.4-9.2-45-6.9zM267.7 133c7.3 4.4 7.5 14.1.3 18.3-8.1 4.8-16.8-1.4-16.1-11.5.2-2.5 4.8-7.6 7.4-8.1 4.2-.8 5.2-.7 8.4 1.3zM451 300.4c6.6.6 14.5 1.6 25.8 3.1 7.2 1.1 11.2 1.7 21.7 3.6 6.1 1.1 12.4 2.2 14 2.5 18.3 3.2 50.9 13 64.4 19.5 18.2 8.7 26.5 16.9 24 23.8-.8 2.1-8.7 10.1-10.1 10.1-.4 0-1.3.6-2 1.3-1.1 1.1-14.8 8.1-21.3 10.8-7.7 3.3-29.5 9.6-43 12.5-1.1.3-4 .9-6.5 1.4-2.5.6-5.6 1.3-7 1.6-1.4.2-3.2.7-4 .9-2.4.7-11.2 1.9-14.3 1.9-2.6.1-3-.5-6.8-9.9-6.6-16.2-12.9-28.8-24.1-48.5-5.8-10.2-11.8-20.8-13.4-23.5-1.5-2.8-3.6-6.4-4.6-8-1.9-3.1-2.3-4.9-1-4.2.4.3 4.1.8 8.2 1.1zm-251.5 16.8c3.6 18.1 13.8 46.1 25.5 70 5.5 11.1 5.7 10.7-5.1 8.8-6.3-1.1-8.7-1.5-14.9-2.4-8.4-1.3-29.5-5.8-41-8.7-37.9-9.7-64.9-24.1-65.2-34.8-.3-8.6 18.2-20.3 46.2-29.5 11.8-3.8 33.4-9.3 44-11.1 1.9-.3 3.6-.8 3.9-1.1.2-.2 1.4-.4 2.6-.4 1.9 0 2.3 1 4 9.2zM128.7 397c9.5 3.4 31.7 10 34.6 10.3 1.8.1 2.3 1.1 3.1 6.7.8 5 1.6 9.3 2.1 11 .2.8.7 3.1 1 5 2.2 13.2 14.9 54.3 19.4 62.8 1.1 2 .9 2-7.8-.4-13.7-3.7-31.4-10.2-44.4-16.2-5.5-2.4-6.2-3.2-9.5-9.7-2-3.8-5.1-10.4-6.9-14.5-1.9-4.1-3.8-8.4-4.3-9.5-3.4-7.2-12-37.3-13.4-47-.3-2.2-.9-5.7-1.2-7.7l-.5-3.7 9.5 4.8c5.2 2.7 13.4 6.3 18.3 8.1zm469.9-9.3c-1.3 9.4-1.9 12.4-4.2 21.6-4.8 19.1-10.8 35.4-19.6 53.4l-5.3 10.6-9.1 4.3c-7.9 3.7-32.9 12.8-38.1 13.9-1 .2-3 .8-4.5 1.4-1.6.6-2.8.8-2.8.5 0-.3-.6-.2-1.2.3-3.3 2-3.2.4.4-8.6 7.3-18.1 17.5-55.7 19.4-71.8l.7-5.2 5.2-1.6c2.9-.8 5.8-1.5 6.4-1.5 3.4 0 33.2-10.9 42.1-15.4 5.8-2.9 10.7-5.4 10.8-5.5.2 0 .1 1.6-.2 3.6zM198 414.4c4.1.8 9.5 1.7 12 2.1 2.4.4 4.7.8 5 1 .3.2 3.4.6 7 .9 3.6.4 7.6.9 9 1.1 1.4.2 5 .7 8 1 3 .3 7.5.7 10 1 2.5.3 7.2.7 10.5 1 11.2 1 16.5 1.7 16.6 2.4 0 .3.2 2.6.4 5.1.2 2.5.6 7 .9 10 .4 3 .8 8.2 1.1 11.5.5 6 1.4 13.9 2 18.5.6 4.2 2.6 18.3 3.2 22 .2 1.9 1.1 6.6 1.8 10.5.9 5 1 7.2.2 7.7-.6.4-1.4.5-1.7.3-.3-.2-4.2-.7-8.5-1-4.4-.4-8.8-.9-9.9-1.1-1-.2-4.4-.6-7.5-.9-3.1-.4-6.7-.8-8.1-1.1-1.4-.2-4.5-.7-7-1-2.5-.3-9.2-1.4-15-2.5-12.2-2.1-11.3-1.3-18.3-17.3-8.1-18.5-13.9-37.6-20-65.9-1.7-7.7-2.3-7.3 8.3-5.3zm312.5 3.3c-2.1 15.1-11 45.9-18.1 63.2-3.7 8.8-9.2 20.1-9.8 20.1-.2 0-3.9.7-8.2 1.5-11.6 2.1-13.2 2.4-21.9 3.5-4.4.6-9.5 1.3-11.3 1.5-3.3.5-6.7.9-17.2 2-3 .3-6.7.7-8.2.9-1.6.2-2.8.3-2.8.2 0 0 1.1-6.2 2.4-13.6 1.4-7.5 2.7-16.3 3.1-19.5.3-3.3.8-6.7 1-7.5.2-.8.7-5.1 1-9.5.4-4.4.8-8.7 1-9.5.2-.8.7-5.1 1-9.5 1-12.7 1.4-16.7 1.9-17.2.4-.5 2.2-.7 17.6-1.9 4.7-.3 9.2-.7 10-.9.8-.2 4.4-.6 8-1 5.7-.6 17.9-2.2 30.5-4 2.2-.3 5.1-.8 6.3-1.1 1.3-.3 4.3-.7 6.5-1.1 2.3-.3 4.4-.7 4.6-.9.2-.2 1.1-.4 1.9-.4 1.1 0 1.3 1 .7 4.7zM345 426.3c17.9 0 37.9-.1 44.5-.4l12-.4-.1 3c-.1 3.3-1.1 14.8-1.9 23.5-.6 5.8-4.2 33.4-5.1 38.5-3.5 20.2-3.7 20.9-7.2 21.6-4.3.9-70 .9-74.3 0-2.8-.6-3.5-1.2-4.1-4.1-.9-4.1-2.9-15.4-3.3-19-.2-1.4-.6-3.9-.9-5.5-.9-5.3-1.4-8.8-2.6-18.5-1.7-15-1.8-16.1-2.5-24-.3-4.1-.8-9.3-1.1-11.6l-.5-4.1 7.3.4c4 .3 21.9.5 39.8.6zm-200.5 55.5c8.2 3.6 32 11.6 42 14.1 3.9 1 4.3 1.5 9 11.3 6.9 14 19 34 27.4 45.1 7 9.2 9.1 11.6 18.5 21.6l5.1 5.4-12.8-6.6c-27.5-14.3-50.5-32.2-72.2-56.4-12-13.4-31.1-40.6-27.3-39 .7.3 5.4 2.4 10.3 4.5zm421.9-3.6C555.8 496 543.1 512 527.1 528c-20.1 19.9-40.3 34.6-64.3 46.6l-9.3 4.6 3.7-3.8c19.2-20.1 33.1-40 45.9-65.7 5.2-10.4 6.9-12.9 8.9-13.3 11.2-2.5 49.8-16.1 52.5-18.5 1.4-1.3 2.7-1.1 1.9.3zm-338.9 26.7c3.3.6 7.8 1.3 10 1.6 2.2.4 5.1.8 6.5 1 2.8.5 7.2 1.1 14.5 2 2.8.3 6.1.8 7.5 1 2.3.3 17 1.7 19.7 1.8.7 0 1.5.7 1.7 1.6.4 1.3 4.8 20.1 6.1 26.3 2.4 11.3 10.3 34.2 15.6 45.7 2.2 4.6 3.8 8.5 3.7 8.7-.7.6-11.6-3.9-18.5-7.6-27.6-15.2-53.1-41.9-71.8-75.2-4.5-7.9-4.8-9-2.7-8.4.9.3 4.4 1 7.7 1.5zm252.9 1.3c-15.2 29.9-39.2 57.8-63.9 74.3-7.2 4.8-23.1 12.8-27.5 13.8-2.5.6-2.5.6 1.7-8 3.4-6.9 11.2-28.2 12.9-35.3.2-.8.8-3.3 1.4-5.5.6-2.2 2.5-9.9 4.1-17 1.6-7.2 3.2-13.7 3.5-14.6.3-1.3 2.5-1.8 9.7-2.3 5-.4 10.3-.9 11.7-1.1 1.4-.2 5-.6 8-1 8.2-.9 31-4.5 35-5.5 1.9-.4 3.8-.8 4.3-.9.4-.1 0 1.4-.9 3.1zm-90.9 10.3c-8.2 37-17.2 62-27.2 75.2-7.9 10.6-12.7 12.1-19.4 6-11.7-10.5-24.5-42.4-32.4-81.2-.4-2 .1-2 39.5-2s39.9 0 39.5 2z"/></svg>