<?xml version="1.0" encoding="UTF-8"?>
<!-- Generator: Adobe Illustrator 21.0.0, SVG Export Plug-In . SVG Version: 6.00 Build 0)  -->
<svg version="1.1" id="Layer_1" xmlns="http://www.w3.org/2000/svg" xmlns:xlink="http://www.w3.org/1999/xlink" x="0px" y="0px" viewBox="0 0 512 512" style="enable-background:new 0 0 512 512;" xml:space="preserve">
<g>
	<path style="fill:white" d="M254.7,0C190.2,0.3,126.1,8.5,92.8,23.8c0,0-71.7,32.6-71.7,143.8C21,300,21,466.3,139.9,498.4   c45.5,12.2,84.7,14.9,116.2,13.1c57.1-3.2,85.4-20.7,85.4-20.7l-1.9-42.2c0,0-37,13-82.9,11.6c-45.4-1.6-93.3-5-100.8-61.7   c-0.7-5.3-1-10.6-1-15.9c96.3,23.9,178.4,10.4,201,7.7c63.1-7.7,118-47.2,125-83.4c11-57,10.1-139,10.1-139   c0-111.2-71.6-143.8-71.6-143.8C384.2,7.4,319.2-0.3,254.7,0z M185.6,84.8c22.1,0.6,44,10.5,57.4,31.4l13,22.1l13-22.1   c27-42,87.6-39.4,116.4-6.9c26.6,30.9,20.7,50.9,20.7,189.1v0h-52.3V178.2c0-56.3-71.8-58.5-71.8,7.8v69.7h-51.9V186   c0-66.3-71.7-64.1-71.7-7.8v120.2H106c0-138.3-5.8-158.4,20.7-189.1C141.2,92.9,163.5,84.2,185.6,84.8z"/>
</g>
</svg>
